<svg width="42" height="42" viewBox="0 0 42 42" xmlns="http://www.w3.org/2000/svg">
  <defs>
    <linearGradient id="logoGradient" x1="0%" y1="0%" x2="100%" y2="100%">
      <stop offset="0%" stop-color="#f50057" />
      <stop offset="100%" stop-color="#b2071f" />
    </linearGradient>
    <filter id="shadow" x="-20%" y="-20%" width="140%" height="140%">
      <feDropShadow dx="0" dy="4" stdDeviation="2.5" flood-color="rgba(178, 7, 15, 0.3)" />
    </filter>
  </defs>
  
  <!-- Main background square -->
  <rect 
    width="42" 
    height="42" 
    rx="12" 
    fill="url(#logoGradient)" 
    transform="rotate(-5 21 21)" 
    filter="url(#shadow)"
  />
  
  <!-- LocalMoviesIcon - Main white movie icon -->
  <g transform="translate(21, 21)">
    <path 
      d="M11 7v10H1V7h10m2-2H-1v14h14V5zM2 13h3v3H2zM7 13h3v3H7zM2 9h3v3H2zM7 9h3v3H7z" 
      fill="#ffffff" 
    />
  </g>
  
  <!-- MovieFilterIcon - Secondary rotated movie icon -->
  <g transform="translate(21, 21) rotate(45) scale(1.2)">
    <path 
      d="M10 6v9H1V6h9m2-2H-1v13h13V4zM2 11.5h2.5v2.5H2zM6.5 11.5H9v2.5H6.5zM2 7h2.5v2.5H2zM6.5 7H9v2.5H6.5z" 
      fill="rgba(255, 255, 255, 0.4)" 
    />
  </g>
</svg>
</svg>
</svg>
